<!-- Generated by IcoMoon.io -->
<svg version="1.1" xmlns="http://www.w3.org/2000/svg" width="32" height="32" viewBox="0 0 32 32">
<title>untitled96</title>
<path d="M15.911 12.304q-0.107-1.554-1.179-2.571-0.536-0.482-0.893-0.67t-1.071-0.348q0.018-0.089 0.080-0.464t0.116-0.625l-1.625-0.214-0.179 0.893q-1.411-0.25-2.429 0.054v-2.036q2.696-0.107 5.464-0.411l-0.25-1.679q-2.25 0.375-5.107 0.518 0.036-0.536 0.107-0.875t0.107-0.661q-0.089 0-0.643-0.009t-0.946-0.009q-0.036 0.321-0.098 0.714t-0.098 0.911l-2.75 0.054 0.25 1.679 2.143-0.107 0.089 2.446q-1.786 0.893-2.688 2.036t-0.902 3.018q0 1.143 0.536 1.732t1.339 0.598 1.679-0.304 1.589-0.884l0.321 0.643 1.286-0.821-0.375-0.768q0.607-0.607 0.964-1.009t0.902-1.277 0.848-1.821q1.071 0.304 1.464 0.768t0.339 1.536q-0.857 0.179-1.429 0.857t-0.571 1.571v0.446q-0.661 0.179-1.446 0.232l0.821 1.304q0.089-0.018 0.625-0.107v1.214h-9.107q-0.554 0-0.946-0.402t-0.393-0.955v-13.304q0-0.554 0.393-0.946t0.946-0.393h13.304q0.554 0 0.955 0.393t0.402 0.946v9.107h-1.946zM19.696 12.304v-9.839q0-1.018-0.732-1.741t-1.732-0.723h-14.768q-1.018 0-1.741 0.723t-0.723 1.741v14.768q0 1 0.723 1.732t1.741 0.732h9.839v9.839q0 1.018 0.732 1.741t1.732 0.723h14.768q1.018 0 1.741-0.723t0.723-1.741v-14.768q0-1-0.723-1.732t-1.741-0.732h-9.839zM7.161 10.429q0.179 2.143 0.571 3.232-0.304 0.286-0.723 0.554t-0.884 0.446-0.786-0.027-0.321-0.848q0-1.071 0.589-1.982t1.554-1.375zM8.768 9.839q0.964-0.464 2.125-0.125-0.125 0.446-0.348 0.848t-0.402 0.625-0.5 0.616l-0.482 0.589q-0.089-0.232-0.161-0.464t-0.107-0.375-0.063-0.429-0.036-0.366-0.018-0.464-0.009-0.455zM17.768 28.929h-2.357l5.536-13.536h2.411l5.536 13.536h-2.357l-1.589-3.893h-5.571zM22.161 18.232l-2.071 5.018h4.125z"></path>
</svg>
